<?xml version="1.0" standalone="no"?><!DOCTYPE svg PUBLIC "-//W3C//DTD SVG 1.1//EN" "http://www.w3.org/Graphics/SVG/1.1/DTD/svg11.dtd"><svg t="1606122122195" class="icon" viewBox="0 0 1024 1024" version="1.1" xmlns="http://www.w3.org/2000/svg" p-id="6079" xmlns:xlink="http://www.w3.org/1999/xlink" width="200" height="200"><defs><style type="text/css"></style></defs><path d="M682.682182 272.523636a136.843636 136.843636 0 0 0-136.750546 136.983273 136.843636 136.843636 0 0 0 136.750546 136.936727 136.890182 136.890182 0 0 0 136.750545-136.936727 136.843636 136.843636 0 0 0-136.750545-136.983273z m273.035636 614.912s0 68.282182-68.235636 68.282182l-257.489455-268.194909-140.381091 121.949091L278.946909 614.4l-210.664727 195.025455V136.564364c0-68.235636 49.338182-68.235636 68.235636-68.235637h750.964364c18.850909 0 68.235636 0 68.235636 68.235637v750.917818zM887.482182 0H136.517818C117.666909 0 0 0 0 136.517818v750.917818C0 1024 136.517818 1024 136.517818 1024h750.964364C1024 1024 1024 887.435636 1024 887.435636V136.517818C1024 0 906.333091 0 887.482182 0z" fill="#4A90E2" p-id="6080"></path></svg>