<?xml version="1.0" standalone="no"?><!DOCTYPE svg PUBLIC "-//W3C//DTD SVG 1.1//EN" "http://www.w3.org/Graphics/SVG/1.1/DTD/svg11.dtd"><svg t="1606122103660" class="icon" viewBox="0 0 1024 1024" version="1.1" xmlns="http://www.w3.org/2000/svg" p-id="4323" xmlns:xlink="http://www.w3.org/1999/xlink" width="200" height="200"><defs><style type="text/css"></style></defs><path d="M118.802065 706.065401h89.101177v278.103673a39.150517 39.150517 0 0 0 39.825526 39.825526h528.531981a39.150517 39.150517 0 0 0 39.825526-39.825526v-278.103673h89.101177a110.701462 110.701462 0 0 0 104.626382-115.426525V352.360729a110.701462 110.701462 0 0 0-104.626382-115.426525h-89.101177V39.156592a39.150517 39.150517 0 0 0-39.825526-39.150517H247.728768a39.150517 39.150517 0 0 0-39.825526 39.150517v197.777612H118.802065A110.701462 110.701462 0 0 0 14.175684 352.360729v238.278147a110.701462 110.701462 0 0 0 104.626381 115.426525zM737.110232 945.018557H284.17925V510.987824h450.230946zM284.17925 78.982118h450.230946v157.952086H284.17925zM93.151727 352.360729c0-19.575259 12.15016-37.12549 25.650338-37.12549H905.187452c13.500178 0 25.650339 17.550232 25.650339 37.12549v238.278147c0 19.575259-12.15016 37.12549-25.650339 37.125491h-89.101177V472.512316a39.150517 39.150517 0 0 0-39.825526-39.825526H247.728768a39.150517 39.150517 0 0 0-39.825526 39.825526v155.252051H118.802065c-13.500178 0-25.650339-17.550232-25.650338-37.125491z" fill="#2E83FF" p-id="4324"></path><path d="M621.683708 607.514099H419.181033a39.150517 39.150517 0 0 0 0 78.301034h202.502675A39.150517 39.150517 0 0 0 621.683708 607.514099zM560.932905 761.416132H419.181033a39.150517 39.150517 0 0 0 0 78.301034h141.751872a39.150517 39.150517 0 1 0 0-78.301034z" fill="#2E83FF" p-id="4325"></path></svg>