<?xml version="1.0" standalone="no"?><!DOCTYPE svg PUBLIC "-//W3C//DTD SVG 1.1//EN" "http://www.w3.org/Graphics/SVG/1.1/DTD/svg11.dtd"><svg t="1606122077016" class="icon" viewBox="0 0 1024 1024" version="1.1" xmlns="http://www.w3.org/2000/svg" p-id="2807" xmlns:xlink="http://www.w3.org/1999/xlink" width="200" height="200"><defs><style type="text/css"></style></defs><path d="M704 0l192 192h-128a64 64 0 0 1-64-64V0z" fill="#266FFF" p-id="2808"></path><path d="M640 0v192a64 64 0 0 0 64 64h192v725.312c0 23.552-17.152 42.688-38.4 42.688H166.4c-21.248 0-38.4-19.136-38.4-42.688V42.688C128 19.136 145.152 0 166.4 0H640z m96 832h-448a32 32 0 1 0 0 64h448a32 32 0 1 0 0-64z m0-192h-448a32 32 0 1 0 0 64h448a32 32 0 1 0 0-64zM383.104 192.128a80 80 0 0 0-52.032 140.8C286.912 354.752 256 401.408 256 448v12.352C256.64 512 264.896 512 384 512c128 0 128 0 128-64 0-47.424-30.912-94.912-75.712-116.288a80 80 0 0 0-53.184-139.648z" fill="#266FFF" p-id="2809"></path></svg>